<svg width="195" height="195" viewBox="0 0 195 195" fill="none" xmlns="http://www.w3.org/2000/svg">
<path d="M107.006 153.547L180.969 160.586C187.931 161.256 189.713 157.371 189.713 154.08L189.637 150.089L98.6729 137.262C98.6729 141.817 102.375 153.547 107.006 153.547Z" fill="#C7AD3C"/>
<path d="M109.703 150.074L121.342 151.095L183.666 157.112C187.017 157.112 189.714 154.446 189.714 151.156L186.408 50.2125C186.408 46.9219 183.696 44.2559 180.36 44.2559L109.703 37.5833C105.071 37.5833 101.309 41.2852 101.309 45.8403V141.817C101.309 146.372 105.056 150.074 109.703 150.074Z" fill="#FDDC50"/>
<path d="M87.9936 153.547L14.0307 160.586C7.06855 161.256 5.28613 157.371 5.28613 154.08L5.3623 150.089L96.3268 137.246C96.3268 141.817 92.6248 153.547 87.9936 153.547Z" fill="#C7AD3C"/>
<path d="M85.2971 150.074L73.7494 151.094L11.3342 157.127C7.98262 157.127 5.28613 154.461 5.28613 151.171L8.59199 50.2277C8.59199 46.9371 11.3037 44.271 14.64 44.271L85.2971 37.5984C89.9283 37.5984 93.6912 41.3003 93.6912 45.8554V141.832C93.6912 146.372 89.9436 150.074 85.2971 150.074Z" fill="#FDDC50"/>
<path d="M119.971 127.481H75.0596L73.6885 151.14L87.7041 152.45C87.7041 152.45 90.7053 159.946 97.4998 159.946C104.294 159.946 107.296 152.45 107.296 152.45L121.311 151.14L119.971 127.481Z" fill="#424242"/>
<path d="M73.8257 152.999L86.8815 151.871M121.174 152.999L108.118 151.871L121.174 152.999Z" stroke="#616161" stroke-width="0.78125" stroke-miterlimit="10"/>
<path d="M182.279 49.9993L176.186 41.6204L97.5001 131.046L18.8146 41.6204L12.7208 49.9993L11.8677 149.556C11.8677 149.556 28.0466 151.582 49.6642 149.388C68.4938 147.484 77.3603 142.609 83.652 143.873C91.2083 145.397 92.5794 150.043 92.8231 150.836C93.5087 153.029 94.8645 154.736 97.5001 154.736C100.136 154.736 101.309 153.822 102.116 151.11C102.36 150.318 103.792 145.412 111.348 143.889C117.64 142.624 126.506 147.499 145.336 149.404C166.954 151.597 183.133 149.571 183.133 149.571L182.279 49.9993Z" fill="#94C6D6"/>
<path d="M174.129 139.958L174.373 99.7546H182.706L183.132 149.556C183.132 149.556 176.505 146.981 174.129 139.958Z" fill="url(#paint0_linear_233_87)"/>
<path d="M174.51 116.528L174.129 139.973C174.129 139.973 155.909 139.029 126.887 134.002C107.905 130.711 97.5001 141.253 97.5001 141.253L97.3325 116.528H174.51Z" fill="url(#paint1_linear_233_87)"/>
<path d="M20.4902 116.528L20.8711 139.973C20.8711 139.973 39.0914 139.029 68.1129 134.002C87.0949 130.711 97.5 141.253 97.5 141.253L97.3324 116.528H20.4902Z" fill="url(#paint2_linear_233_87)"/>
<path d="M20.8712 139.958L20.6274 99.7546H12.279L11.8677 149.556C11.8677 149.556 18.4794 146.981 20.8712 139.958Z" fill="url(#paint3_linear_233_87)"/>
<path d="M176.186 41.6203C176.186 41.6203 135.754 34.0184 118.006 33.0281C101.309 32.0988 97.8811 40.5996 97.5459 41.6203H97.485C97.1346 40.5996 93.7068 32.1141 77.01 33.0281C59.2619 34.0184 18.8299 41.6203 18.8299 41.6203L17.0322 139.73C17.0322 139.73 65.1729 129.645 76.8271 130.955C88.4814 132.265 97.5002 141.253 97.5002 141.253V141.238V141.253C97.5002 141.253 106.534 132.265 118.188 130.955C129.843 129.645 177.983 139.73 177.983 139.73L176.186 41.6203Z" fill="#F5F5F5"/>
<path opacity="0.26" d="M81.6865 33.0433L73.46 130.848C74.7549 130.818 75.8975 130.848 76.8115 130.955C88.4506 132.25 97.4998 141.253 97.4998 141.253L97.2408 41.6203C97.2408 41.6203 95.2603 33.8203 81.6865 33.0433Z" fill="#94C6D6"/>
<path opacity="0.5" d="M38.558 45.9773C34.4447 46.6933 31.0779 47.3027 29.1584 47.6379C29.1584 48.5824 29.1584 49.6183 29.1432 50.7304C30.8342 50.4258 34.2771 49.8011 38.558 49.0547V45.9773ZM75.6385 41.0718V44.1035C83.7584 44.0883 88.2525 46.1297 89.7303 46.9523C89.7303 45.6879 89.7455 44.5605 89.7455 43.5703C87.2318 42.4429 82.6311 41.0566 75.6385 41.0718ZM69.0268 41.4527C62.4303 42.123 53.2439 43.5246 45.1697 44.8652V47.9578C53.183 46.6324 62.3846 45.2156 69.0268 44.5148V41.4527ZM52.8021 54.6C42.9607 56.1234 33.0889 57.8906 29.1279 58.6066V61.6992C32.5709 61.0746 42.6713 59.2465 52.8021 57.6773V54.6ZM71.1291 52.2234C67.9146 52.4824 63.8166 53.0004 59.4139 53.6097V56.6871C63.908 56.0472 68.1127 55.5293 71.3728 55.255C82.3111 54.3562 88.085 57.0375 89.6998 57.9515V54.5543C86.7139 53.2289 80.7268 51.4312 71.1291 52.2234ZM40.1881 67.6254C35.374 68.448 31.3521 69.164 29.1279 69.5754V72.6679C31.1236 72.3023 35.2064 71.5711 40.1881 70.7179V67.6254ZM89.6998 65.5687C86.7291 64.2281 80.7268 62.4 71.0377 63.2074C64.8373 63.7101 55.3463 65.1269 46.7998 66.5285V69.6211C55.4225 68.2043 65.0506 66.7722 71.2967 66.2543C82.4178 65.3402 88.2068 68.1281 89.6998 68.9965V65.5687ZM89.715 76.5832C86.7748 75.2425 80.742 73.3687 70.9768 74.1761C69.9865 74.2523 68.9201 74.359 67.7928 74.4808V77.5429C69.0268 77.4058 70.1693 77.2992 71.2357 77.2078C82.5701 76.2785 88.3592 79.1882 89.7303 80.0109C89.715 78.8683 89.715 77.7257 89.715 76.5832ZM61.1658 75.3035C49.2525 76.9336 34.4143 79.5691 29.1432 80.5289V83.6215C33.7896 82.7683 48.9783 80.0414 61.1658 78.3656V75.3035ZM43.0369 89.0754C37.0498 90.0808 31.8701 91.0101 29.1432 91.4976V94.5902C31.6111 94.1332 36.867 93.1886 43.0369 92.1527V89.0754ZM89.7303 87.6129C86.8205 86.2722 80.7572 84.3527 70.9006 85.1601C65.4162 85.6172 57.3725 86.7597 49.6639 87.9937V91.0711C57.4486 89.8218 65.6295 88.6488 71.1443 88.1918C82.7682 87.232 88.5725 90.3398 89.7303 91.0406V87.6129ZM89.7607 109.657C86.9881 108.332 80.9857 106.336 71.0834 107.082V110.145C83.7127 109.124 89.4408 112.902 89.7607 113.13V109.657ZM40.1881 111.485C35.4959 112.293 31.5045 112.993 29.1736 113.42V116.512C31.3217 116.116 35.3436 115.4 40.1881 114.562V111.485ZM46.7998 110.388V113.481C52.7107 112.521 59.0635 111.546 64.4717 110.861V107.783C59.0939 108.453 52.7412 109.413 46.7998 110.388ZM57.3877 119.712C46.4799 121.296 34.2162 123.475 29.1889 124.389V127.481C33.7439 126.643 46.2361 124.419 57.3877 122.789V119.712ZM89.776 120.687C87.0186 119.346 80.8791 117.259 70.6416 118.097C68.7068 118.249 66.4521 118.508 63.9994 118.813V121.875C66.5436 121.555 68.8896 121.296 70.8853 121.128C83.926 120.047 89.6541 124.099 89.715 124.13L89.7912 124.038C89.7912 122.987 89.7912 121.875 89.776 120.687ZM55.1178 98.1093C44.7279 99.6632 33.7135 101.628 29.1584 102.466V105.559C33.2412 104.812 44.4689 102.802 55.1178 101.187V98.1093ZM89.7455 98.6273C86.8814 97.2867 80.8029 95.3062 70.8092 96.1289C68.2498 96.3422 65.1268 96.7078 61.7447 97.1648V100.242C65.2334 99.7699 68.4479 99.389 71.0682 99.1757C83.0729 98.1855 88.8771 101.522 89.7607 102.086C89.7455 100.958 89.7455 99.8004 89.7455 98.6273ZM134.687 45.2613C147.301 46.9371 163.785 49.923 168.263 50.7304C168.263 49.6031 168.263 48.5824 168.248 47.6379C163.008 46.6781 146.966 43.814 134.672 42.184V45.2613H134.687ZM128.06 41.4222C127.405 41.3613 126.78 41.3004 126.186 41.2547C116.634 40.4625 110.662 42.2449 107.661 43.5703C107.661 44.5605 107.676 45.7031 107.676 46.9523C109.383 46.0078 115.156 43.4027 125.942 44.2863C126.613 44.3472 127.329 44.4082 128.06 44.4843V41.4222ZM155.939 59.5359C160.057 60.2369 164.17 60.9631 168.279 61.7144V58.6218C165.887 58.18 161.347 57.3726 155.939 56.4586V59.5359ZM149.327 55.3465C141.085 54.0211 132.188 52.7109 126.278 52.2234C116.68 51.4312 110.693 53.2289 107.692 54.5543V57.9515C109.306 57.0375 115.08 54.3562 126.019 55.255C131.975 55.7425 141.009 57.0832 149.312 58.4238V55.3465H149.327ZM148.047 66.1019V69.1793C156.899 70.5961 165.14 72.089 168.279 72.6679V69.5754C164.729 68.9355 156.64 67.4882 148.047 66.1019ZM134.672 75.1054C131.61 74.7093 128.776 74.3742 126.43 74.1914C116.665 73.384 110.632 75.2578 107.692 76.5984V80.0261C109.063 79.2187 114.867 76.2937 126.186 77.223C128.593 77.4211 131.518 77.7562 134.672 78.1828V75.1054ZM141.299 76.0347V79.1121C152.344 80.7574 164.242 82.9054 168.263 83.6367V80.5441C163.724 79.7062 152.069 77.6343 141.299 76.0347ZM142.639 87.2015C136.622 86.2875 130.787 85.5105 126.521 85.1601C116.649 84.3527 110.586 86.2722 107.692 87.6129V91.0558C108.849 90.3398 114.654 87.2472 126.278 88.207C130.589 88.5574 136.546 89.3648 142.654 90.2941V87.2015H142.639ZM149.251 88.2375V91.33C157.538 92.6707 165.125 94.0418 168.248 94.6054V91.5129C164.775 90.873 157.31 89.5324 149.251 88.2375ZM160.022 101.004V104.096C163.617 104.721 166.557 105.254 168.233 105.559V102.466C166.405 102.131 163.51 101.613 160.022 101.004ZM136.028 108.179C132.539 107.707 129.309 107.326 126.689 107.113C116.573 106.275 110.464 108.316 107.661 109.657V113.13C107.981 112.902 113.74 109.093 126.46 110.145C129.142 110.358 132.463 110.754 136.058 111.241V108.179H136.028ZM142.639 109.124V112.201C153.12 113.786 164.12 115.766 168.233 116.512V113.42C163.663 112.597 152.877 110.678 142.639 109.124ZM148.047 120.93C140.324 119.696 132.249 118.539 126.765 118.082C116.512 117.244 110.388 119.346 107.631 120.671V124.023L107.707 124.114C107.753 124.084 113.481 120.032 126.537 121.113C132.067 121.57 140.278 122.759 148.078 124.008V120.93H148.047ZM154.674 122.027V125.12C160.601 126.11 165.658 127.024 168.218 127.496V124.404C165.43 123.886 160.433 122.987 154.674 122.027ZM126.338 96.1136C116.497 95.3367 110.495 97.3019 107.661 98.6273V102.086C108.545 101.522 114.334 98.1855 126.338 99.1757V96.1136ZM132.965 96.8144V99.8765C139.242 100.669 146.783 101.857 153.41 102.954V99.8613C146.737 98.7644 139.196 97.5914 132.965 96.8144ZM121.448 63.0246C114.623 63.0703 110.129 64.4718 107.707 65.5687V68.9812C108.987 68.25 113.359 66.1324 121.448 66.0562V63.0246ZM128.06 63.3597V66.4218C131.853 66.8027 136.561 67.4425 141.421 68.1586V65.0812C136.546 64.35 131.853 63.7254 128.06 63.3597Z" fill="#757575"/>
<path d="M108.408 149.982C106.702 149.83 105.133 150.881 104.584 152.511C103.762 154.995 101.842 158.239 97.5002 158.239C93.1127 158.239 91.1779 154.979 90.34 152.496C90.0792 151.718 89.5656 151.049 88.881 150.597C88.1964 150.144 87.3801 149.933 86.5619 149.998L85.9678 150.043L85.983 150.531C85.983 153.581 87.1948 156.507 89.3519 158.664C91.5089 160.821 94.4345 162.033 97.485 162.033C100.535 162.033 103.461 160.821 105.618 158.664C107.775 156.507 108.987 153.581 108.987 150.531C108.987 150.378 108.972 150.028 108.972 150.028L108.408 149.982Z" fill="#616161"/>
<defs>
<linearGradient id="paint0_linear_233_87" x1="178.612" y1="134.369" x2="178.989" y2="108.009" gradientUnits="userSpaceOnUse">
<stop offset="0.267" stop-color="#82AEC0"/>
<stop offset="1" stop-color="#82AEC0" stop-opacity="0"/>
</linearGradient>
<linearGradient id="paint1_linear_233_87" x1="106.514" y1="128.884" x2="171.734" y2="128.884" gradientUnits="userSpaceOnUse">
<stop stop-color="#2F7889"/>
<stop offset="1" stop-color="#82AEC0"/>
</linearGradient>
<linearGradient id="paint2_linear_233_87" x1="88.3274" y1="128.884" x2="23.2522" y2="128.884" gradientUnits="userSpaceOnUse">
<stop stop-color="#2F7889"/>
<stop offset="1" stop-color="#82AEC0"/>
</linearGradient>
<linearGradient id="paint3_linear_233_87" x1="16.3816" y1="134.369" x2="16.0038" y2="108.009" gradientUnits="userSpaceOnUse">
<stop offset="0.267" stop-color="#82AEC0"/>
<stop offset="1" stop-color="#82AEC0" stop-opacity="0"/>
</linearGradient>
</defs>
</svg>
